<svg width="175" height="30" viewBox="0 0 175 30" fill="none" xmlns="http://www.w3.org/2000/svg">
<path fill-rule="evenodd" clip-rule="evenodd" d="M169.038 17.101L174.488 24.81H169.252L166.42 20.804L163.59 24.81H158.352L163.802 17.101L158.535 9.635H163.772L166.42 13.399L169.07 9.635H174.306L169.038 17.101ZM153.932 17.223C153.932 15.068 152.41 13.641 150.431 13.641C148.452 13.641 146.93 15.068 146.93 17.223C146.93 19.377 148.452 20.803 150.43 20.803C152.41 20.803 153.932 19.377 153.932 17.223ZM158.499 17.223C158.499 21.745 154.906 25.235 150.431 25.235C145.955 25.235 142.363 21.745 142.363 17.223C142.363 12.7 145.955 9.21 150.431 9.21C154.906 9.21 158.499 12.7 158.499 17.223ZM136.426 17.223C136.426 14.946 134.904 13.52 132.803 13.52C130.703 13.52 129.181 14.946 129.181 17.223C129.181 19.499 130.703 20.925 132.803 20.925C134.904 20.925 136.426 19.499 136.426 17.223ZM140.993 17.223C140.993 21.745 137.705 25.235 133.717 25.235C131.677 25.235 130.185 24.537 129.181 23.383V24.81H124.614V3.565H129.181V11.062C130.185 9.908 131.677 9.21 133.717 9.21C137.705 9.21 140.993 12.7 140.993 17.223ZM116.041 9.21C119.115 9.21 121.734 11.395 121.734 15.493V24.81H117.167V16.16C117.167 14.279 115.98 13.399 114.518 13.399C112.844 13.399 111.688 14.369 111.688 16.525V24.81H107.12V9.635H111.687V11.062C112.509 9.939 114.031 9.21 116.041 9.21ZM100.353 15.644C99.866 13.884 98.496 13.247 97.125 13.247C95.39 13.247 94.233 14.097 93.807 15.644H100.353ZM104.889 17.223C104.889 17.86 104.829 18.467 104.706 19.043H93.898C94.477 20.622 95.878 21.168 97.552 21.168C98.8 21.168 99.866 20.683 100.475 20.015L104.128 22.109C102.636 24.173 100.383 25.235 97.491 25.235C92.285 25.235 89.058 21.745 89.058 17.223C89.058 12.7 92.346 9.21 97.156 9.21C101.601 9.21 104.889 12.64 104.889 17.223ZM89.174 9.635L83.633 17.223L89.326 24.81H84.15L79.28 18.103V24.81H74.712V3.565H79.279V16.282L83.846 9.635H89.174ZM67.969 17.223C67.969 15.068 66.447 13.641 64.468 13.641C62.488 13.641 60.967 15.068 60.967 17.223C60.967 19.377 62.489 20.803 64.467 20.803C66.447 20.803 67.969 19.377 67.969 17.223ZM72.536 17.223C72.536 21.745 68.943 25.235 64.468 25.235C59.992 25.235 56.4 21.745 56.4 17.223C56.4 12.7 59.992 9.21 64.468 9.21C68.943 9.21 72.536 12.7 72.536 17.223ZM51.79 9.635H54.926V14.005H51.79V19.377C51.79 20.683 52.916 20.804 54.926 20.683V24.81C48.958 25.417 47.223 23.626 47.223 19.377V14.005H44.79V9.635H47.225V6.752L51.792 5.386V9.635H51.79ZM24.183 24.429L29.67 14.998L23.562 4.5H11.347L5.239 14.998L10.726 24.429L17.456 14.998L24.183 24.429ZM26.182 0L34.909 15L26.182 30H8.727L0 15L8.727 0H26.182Z" fill="#C9CFDA"/>
</svg>
