<svg width="90" height="77" viewBox="0 0 90 77" fill="none" xmlns="http://www.w3.org/2000/svg">
<mask id="mask0" mask-type="alpha" maskUnits="userSpaceOnUse" x="0" y="0" width="90" height="77">
<path d="M0 0.271484H89.7564V76.853H0V0.271484Z" fill="white"/>
</mask>
<g mask="url(#mask0)">
<path opacity="0.2" fill-rule="evenodd" clip-rule="evenodd" d="M0.0290559 50.3874C0.762273 23.469 37.1399 -7.06723 64.2576 1.85341C81.4923 7.52364 93.1533 28.5295 88.8647 45.1198C81.2386 74.6197 24.4222 85.3908 6.7029 69.5755C-0.323391 63.3057 -0.0659791 53.8713 0.0290559 50.3874Z" fill="white"/>
</g>
<path fill-rule="evenodd" clip-rule="evenodd" d="M10.7236 48.2109H57.788V58.1824C57.788 62.5342 47.2441 66.0617 34.2369 66.0617C21.2297 66.0617 10.7236 62.5336 10.7236 58.1824V48.2109Z" fill="white"/>
<path fill-rule="evenodd" clip-rule="evenodd" d="M10.7041 48.0747C10.7041 52.4265 21.2473 55.9552 34.2552 55.9552C47.2617 55.9552 57.8062 52.4265 57.8062 48.0747C57.8062 43.7229 47.2617 40.1948 34.2552 40.1948C21.2473 40.1948 10.7041 43.7229 10.7041 48.0747Z" fill="#949AF6"/>
<path fill-rule="evenodd" clip-rule="evenodd" d="M13.6943 48.0744C13.6943 51.2049 22.9001 53.7421 34.2559 53.7421C45.6097 53.7421 54.8155 51.2049 54.8155 48.0744C54.8155 44.9439 45.6104 42.4067 34.2552 42.4067C22.9001 42.4067 13.695 44.9439 13.695 48.0744" fill="#949AF6"/>
<path fill-rule="evenodd" clip-rule="evenodd" d="M7.0934 37.8228H54.1577V47.7943C54.1577 52.146 43.6133 55.6748 30.6061 55.6748C17.5995 55.6748 7.09277 52.146 7.09277 47.7943V37.8228H7.0934Z" fill="white"/>
<path fill-rule="evenodd" clip-rule="evenodd" d="M7.07422 37.6872C7.07422 42.0395 17.6174 45.567 30.6253 45.567C43.6312 45.567 54.1763 42.0389 54.1763 37.6872C54.1763 33.3354 43.6306 29.8066 30.6253 29.8066C17.6174 29.8066 7.07422 33.3354 7.07422 37.6872Z" fill="#949AF6"/>
<path fill-rule="evenodd" clip-rule="evenodd" d="M10.0635 37.6872C10.0635 40.8171 19.2693 43.3549 30.625 43.3549C41.9795 43.3549 51.1853 40.8171 51.1853 37.6872C51.1853 34.5567 41.9795 32.0195 30.625 32.0195C19.2693 32.0195 10.0635 34.5567 10.0635 37.6872Z" fill="#949AF6"/>
<path fill-rule="evenodd" clip-rule="evenodd" d="M10.082 26.9502H57.1464V36.9223C57.1464 41.2741 46.6013 44.8028 33.5953 44.8028C20.5875 44.8028 10.082 41.2741 10.082 36.9223V26.9502Z" fill="white"/>
<path fill-rule="evenodd" clip-rule="evenodd" d="M10.0635 26.8144C10.0635 31.1668 20.6067 34.6943 33.6145 34.6943C46.6205 34.6943 57.1656 31.1662 57.1656 26.8144C57.1656 22.4627 46.6198 18.9346 33.6145 18.9346C20.6067 18.9346 10.0635 22.4633 10.0635 26.8151" fill="#949AF6"/>
<path fill-rule="evenodd" clip-rule="evenodd" d="M13.0527 26.8142C13.0527 29.944 22.2585 32.4819 33.6143 32.4819C44.9687 32.4819 54.1745 29.944 54.1745 26.8142C54.1745 23.6837 44.9687 21.1465 33.6143 21.1465C22.2585 21.1465 13.0527 23.6837 13.0527 26.8142Z" fill="#949AF6"/>
<path fill-rule="evenodd" clip-rule="evenodd" d="M11.6309 16.0314H58.6952V26.0023C58.6952 30.354 48.1507 33.8815 35.1441 33.8815C22.1363 33.8815 11.6309 30.3534 11.6309 26.0023V16.0308V16.0314Z" fill="white"/>
<mask id="path-13-inside-1" fill="white">
<path fill-rule="evenodd" clip-rule="evenodd" d="M11.6123 16.5254C11.6123 20.8772 22.1555 24.4046 35.1634 24.4046C48.1699 24.4046 58.7144 20.8772 58.7144 16.5254C58.7144 12.1736 48.1693 8.64551 35.1634 8.64551C22.1555 8.64551 11.6123 12.1736 11.6123 16.5254Z"/>
</mask>
<path fill-rule="evenodd" clip-rule="evenodd" d="M11.6123 16.5254C11.6123 20.8772 22.1555 24.4046 35.1634 24.4046C48.1699 24.4046 58.7144 20.8772 58.7144 16.5254C58.7144 12.1736 48.1693 8.64551 35.1634 8.64551C22.1555 8.64551 11.6123 12.1736 11.6123 16.5254Z" fill="white"/>
<path d="M10.6123 16.5254C10.6123 18.0494 11.5364 19.3435 12.8425 20.3767C14.1595 21.4185 16.0033 22.3128 18.1926 23.0453C22.5817 24.5137 28.5816 25.4046 35.1634 25.4046V23.4046C28.7373 23.4046 22.9617 22.5318 18.8272 21.1486C16.7547 20.4552 15.1498 19.6517 14.0833 18.8081C13.0061 17.956 12.6123 17.1772 12.6123 16.5254H10.6123ZM35.1634 25.4046C41.7445 25.4046 47.7444 24.5137 52.1336 23.0453C54.323 22.3128 56.1669 21.4185 57.484 20.3767C58.7901 19.3436 59.7144 18.0495 59.7144 16.5254H57.7144C57.7144 17.1772 57.3206 17.9559 56.2432 18.8081C55.1767 19.6517 53.5716 20.4552 51.4991 21.1486C47.3644 22.5318 41.5888 23.4046 35.1634 23.4046V25.4046ZM59.7144 16.5254C59.7144 15.0013 58.7901 13.7071 57.4839 12.674C56.1668 11.6322 54.3229 10.7378 52.1334 10.0052C47.7441 8.53662 41.7442 7.64551 35.1634 7.64551V9.64551C41.5884 9.64551 47.3641 10.5184 51.4988 11.9019C53.5714 12.5953 55.1765 13.3989 56.2431 14.2426C57.3206 15.0948 57.7144 15.8736 57.7144 16.5254H59.7144ZM35.1634 7.64551C28.5816 7.64551 22.5817 8.53662 18.1926 10.0052C16.0032 10.7378 14.1594 11.6322 12.8425 12.674C11.5364 13.7072 10.6123 15.0014 10.6123 16.5254H12.6123C12.6123 15.8735 13.0061 15.0947 14.0834 14.2425C15.1498 13.3989 16.7548 12.5953 18.8272 11.9019C22.9617 10.5185 28.7373 9.64551 35.1634 9.64551V7.64551Z" fill="#949AF6" mask="url(#path-13-inside-1)"/>
<path fill-rule="evenodd" clip-rule="evenodd" d="M16.1104 15.7858C16.1104 18.4114 24.6591 20.5403 35.2055 20.5403C45.7512 20.5403 54.3006 18.4108 54.3006 15.7858C54.3006 13.1603 45.7512 11.0308 35.2055 11.0308C24.6591 11.0308 16.1104 13.1603 16.1104 15.7858Z" fill="#4338AD"/>
<path fill-rule="evenodd" clip-rule="evenodd" d="M77.144 45.5064C77.1521 56.8424 67.9029 66.0389 56.4849 66.0483C45.0656 66.0559 35.8025 56.874 35.7949 45.5379C35.7855 34.2025 45.0353 25.0054 56.4534 24.9966C67.8721 24.9884 77.1351 34.1703 77.144 45.5064Z" fill="#7377E9"/>
<path fill-rule="evenodd" clip-rule="evenodd" d="M78.5496 45.5045C78.5572 56.8386 69.7082 66.0338 58.7849 66.042C47.8602 66.0508 38.9974 56.8689 38.9893 45.5348C38.9811 34.2006 47.8294 25.0054 58.7534 24.9966C69.6774 24.9884 78.5408 34.1697 78.5496 45.5045Z" fill="white"/>
<path fill-rule="evenodd" clip-rule="evenodd" d="M58.7581 30.1056C50.5523 30.1119 43.9068 37.0179 43.9131 45.5309C43.9194 54.0438 50.5762 60.9391 58.7813 60.9328C66.9864 60.9277 73.632 54.0211 73.6257 45.5075C73.6194 36.9952 66.9625 30.0987 58.7574 30.105" fill="#4338AD"/>
<path fill-rule="evenodd" clip-rule="evenodd" d="M58.7559 27.4399C49.1473 27.4469 41.3362 35.5641 41.3431 45.533C41.3513 55.5026 49.1743 63.6066 58.783 63.6003C68.3909 63.5921 76.202 55.4761 76.1951 45.5072C76.1882 35.5369 68.3639 27.4324 58.7553 27.4399H58.7559ZM58.7842 66.0624C47.8678 66.0712 38.9779 56.8621 38.9697 45.5349C38.9609 34.2071 47.8363 24.9848 58.754 24.9766C69.6717 24.969 78.5597 34.1774 78.5685 45.5053C78.5773 56.8318 69.7019 66.0542 58.7842 66.0617" fill="white"/>
<path fill-rule="evenodd" clip-rule="evenodd" d="M62.868 51.5117L58.7708 45.5139L54.6799 51.518L51.3373 45.5202L55.0481 38.9184L62.481 38.9121L66.2018 45.5095L62.8674 51.5117H62.868ZM64.0752 35.9678L53.4501 35.976L48.1445 45.5278L53.464 55.0707L64.089 55.0625L69.3946 45.512L64.0752 35.9678Z" fill="#DFE0F8"/>
<path fill-rule="evenodd" clip-rule="evenodd" d="M62.868 51.5117L58.7708 45.5139L54.6799 51.518L51.3373 45.5202L55.0481 38.9184L62.481 38.9121L66.2018 45.5095L62.8674 51.5117H62.868ZM64.0752 35.9678L53.4501 35.976L48.1445 45.5278L53.464 55.0707L64.089 55.0625L69.3946 45.512L64.0752 35.9678V35.9678Z" stroke="#DFE0F8" stroke-width="0.815"/>
<path fill-rule="evenodd" clip-rule="evenodd" d="M85.3529 58.8016C85.3529 62.8113 82.1217 66.0623 78.1359 66.0623C74.1501 66.0623 70.9189 62.8119 70.9189 58.8016C70.9189 54.7932 74.1501 51.5415 78.1359 51.5415C82.1217 51.5415 85.3529 54.7932 85.3529 58.8016Z" fill="#4338AD"/>
<path fill-rule="evenodd" clip-rule="evenodd" d="M78.1365 63.0303C77.9616 63.0298 77.794 62.9598 77.6704 62.8356C77.5469 62.7113 77.4775 62.5431 77.4775 62.3676V55.2376C77.4775 54.8727 77.7733 54.5742 78.1359 54.5742C78.4984 54.5742 78.7954 54.8727 78.7954 55.2369V62.3689C78.7954 62.7331 78.4984 63.0316 78.1359 63.0316" fill="white"/>
<path fill-rule="evenodd" clip-rule="evenodd" d="M73.9316 58.8014C73.9316 58.4372 74.2287 58.1387 74.5906 58.1387H81.6804C81.8559 58.1387 82.0241 58.2086 82.1482 58.333C82.2722 58.4574 82.3419 58.6261 82.3419 58.802C82.3419 58.9779 82.2722 59.1467 82.1482 59.2711C82.0241 59.3955 81.8559 59.4653 81.6804 59.4653H74.5906C74.4156 59.4643 74.2481 59.394 74.1246 59.2696C74.0012 59.1452 73.9318 58.9769 73.9316 58.8014Z" fill="white"/>
<path fill-rule="evenodd" clip-rule="evenodd" d="M42.7584 14.723L35.4338 15.6861L42.7603 16.6373L35.4357 17.4237L27.3778 16.5609L27.3766 14.8227L35.4325 13.9486L42.7584 14.723ZM23.7822 14.4516L23.7841 16.9371L35.4419 18.1703L47.0973 16.92L47.0954 14.4346L35.4382 13.2007L23.7822 14.4522V14.4516Z" fill="#949AF6"/>
</svg>
