<svg width="385" height="368" viewBox="0 0 385 368" fill="none" xmlns="http://www.w3.org/2000/svg">
<g opacity="0.14">
<mask id="path-1-inside-1" fill="white">
<path fill-rule="evenodd" clip-rule="evenodd" d="M6.5 160H67.5L98 213L67.5 266H6.5L-24 213L6.5 160ZM59.9627 245.239L79.1319 211.932L57.7972 175.298H15.1239L-6.20706 211.932L12.9584 245.239L36.4624 211.932L59.9627 245.239Z"/>
</mask>
<path d="M6.5 160V-62H-121.881L-185.914 49.2712L6.5 160ZM67.5 160L259.914 49.2712L195.881 -62H67.5V160ZM98 213L290.414 323.729L354.135 213L290.414 102.271L98 213ZM67.5 266V488H195.881L259.914 376.729L67.5 266ZM6.5 266L-185.914 376.729L-121.881 488H6.5V266ZM-24 213L-216.414 102.271L-280.135 213L-216.414 323.729L-24 213ZM59.9627 245.239L-121.431 373.225L78.9738 657.257L252.371 355.977L59.9627 245.239ZM79.1319 211.932L271.54 322.671L335.652 211.276L270.971 100.211L79.1319 211.932ZM57.7972 175.298L249.636 63.5766L185.414 -46.7019H57.7972V175.298ZM15.1239 175.298V-46.7019H-112.504L-176.724 63.5915L15.1239 175.298ZM-6.20706 211.932L-198.055 100.226L-262.715 211.275L-198.625 322.654L-6.20706 211.932ZM12.9584 245.239L-179.46 355.961L-6.08627 657.258L194.342 373.239L12.9584 245.239ZM36.4624 211.932L217.856 83.9465L36.4771 -173.12L-144.921 83.9326L36.4624 211.932ZM6.5 382H67.5V-62H6.5V382ZM-124.914 270.729L-94.414 323.729L290.414 102.271L259.914 49.2712L-124.914 270.729ZM-94.414 102.271L-124.914 155.271L259.914 376.729L290.414 323.729L-94.414 102.271ZM67.5 44H6.5V488H67.5V44ZM198.914 155.271L168.414 102.271L-216.414 323.729L-185.914 376.729L198.914 155.271ZM168.414 323.729L198.914 270.729L-185.914 49.2712L-216.414 102.271L168.414 323.729ZM252.371 355.977L271.54 322.671L-113.277 101.194L-132.446 134.501L252.371 355.977ZM270.971 100.211L249.636 63.5766L-134.042 287.02L-112.707 323.654L270.971 100.211ZM57.7972 -46.7019H15.1239V397.298H57.7972V-46.7019ZM-176.724 63.5915L-198.055 100.226L185.641 323.639L206.972 287.005L-176.724 63.5915ZM-198.625 322.654L-179.46 355.961L205.376 134.517L186.211 101.211L-198.625 322.654ZM194.342 373.239L217.846 339.932L-144.921 83.9326L-168.425 117.239L194.342 373.239ZM-144.931 339.918L-121.431 373.225L241.356 117.253L217.856 83.9465L-144.931 339.918Z" fill="#79DFFF" mask="url(#path-1-inside-1)"/>
</g>
<g opacity="0.14">
<mask id="path-3-inside-2" fill="white">
<path d="M320 315.501L352.494 334.907L384.974 315.501L352.494 261L320 315.501Z"/>
<path d="M320 321.724L352.494 368L385 321.724L352.494 341.131L320 321.724Z"/>
</mask>
<path d="M320 315.501L129.318 201.815L15.7189 392.352L206.169 506.096L320 315.501ZM352.494 334.907L238.663 525.502L352.516 593.5L466.357 525.483L352.494 334.907ZM384.974 315.501L498.838 506.076L689.203 392.339L575.676 201.848L384.974 315.501ZM352.494 261L543.195 147.347L352.531 -172.574L161.812 147.314L352.494 261ZM320 321.724L433.831 131.129L138.316 449.298L320 321.724ZM352.494 368L170.81 495.573L352.458 754.268L534.154 495.607L352.494 368ZM385 321.724L566.66 449.331L271.202 131.109L385 321.724ZM352.494 341.131L238.663 531.726L352.471 599.696L466.291 531.746L352.494 341.131ZM206.169 506.096L238.663 525.502L466.324 144.312L433.831 124.905L206.169 506.096ZM466.357 525.483L498.838 506.076L271.111 124.925L238.63 144.332L466.357 525.483ZM575.676 201.848L543.195 147.347L161.792 374.653L194.273 429.153L575.676 201.848ZM161.812 147.314L129.318 201.815L510.682 429.186L543.175 374.686L161.812 147.314ZM138.316 449.298L170.81 495.573L534.178 240.427L501.684 194.151L138.316 449.298ZM534.154 495.607L566.66 449.331L203.34 194.117L170.833 240.393L534.154 495.607ZM271.202 131.109L238.696 150.516L466.291 531.746L498.798 512.339L271.202 131.109ZM466.324 150.535L433.831 131.129L206.169 512.319L238.663 531.726L466.324 150.535Z" fill="#61E897" mask="url(#path-3-inside-2)"/>
</g>
<path opacity="0.14" d="M307.887 61.46C310.602 60.8209 313.266 59.7563 315.785 58.243L307.887 61.46ZM307.887 61.46L309.421 60.5386L310.137 60.1088L310.137 60.1099L314.122 57.7148L317.821 55.4929L317.82 55.4919L318.542 55.0584L322.338 52.7769C320.497 54.8751 318.306 56.728 315.785 58.2427L307.887 61.46ZM303.72 12.1292C302.453 12.1242 301.211 12.2974 300.02 12.5815L299.354 11.4733L296.866 7.33331C307.771 5.45606 319.2 10.2821 325.24 20.3359L325.364 20.5407C331.266 30.5559 330.129 42.8043 323.397 51.4927L320.594 46.8267L320.04 45.9036C321.311 44.661 322.459 43.2501 323.313 41.6375C325.381 37.7316 325.34 33.4325 323.291 29.1797C321.801 26.0852 319.551 23.4586 316.255 22.1692C316.113 22.114 315.972 22.062 315.831 22.0131C315.83 22.0081 315.829 22.0031 315.827 21.9981L316.555 21.2686L313.483 17.118C310.957 13.7045 307.439 12.1437 303.72 12.1292ZM291.12 9.42112L289.164 10.5968L285.258 12.9436L282.388 14.6685C283.858 13.2537 285.509 11.9808 287.333 10.8853L287.333 10.8851C289.156 9.78973 291.054 8.92924 292.993 8.29489L291.12 9.42112ZM275.209 26.2807C275.896 24.0909 276.855 21.9834 278.073 20.0135L279.946 23.1333L280.08 23.3557L278.652 24.2135L275.209 26.2807ZM278.69 35.9298L279.076 36.5714L277.719 43.505L281.779 41.0673L281.841 41.1701L286.034 38.5405L287.455 40.9069L290.103 45.3124L290.148 45.3878L287.322 47.0263L287.357 47.1151L280.56 51.2158L289.645 52.9056L290.912 56.1131L292.74 60.7396C286.741 58.7209 281.401 54.641 277.886 48.7904L277.885 48.7894C274.164 42.5976 273.153 35.5322 274.509 28.9747L276.598 32.4488L278.69 35.9298ZM299.583 59.0512L301.012 58.1924L301.189 58.4868L303.381 62.1319C300.723 62.3049 298.065 62.0908 295.491 61.5105L299.583 59.0512ZM284.243 5.74349L284.243 5.74373L284.243 5.74349Z" stroke="white" stroke-width="12"/>
</svg>
