<svg width="106" height="48" viewBox="0 0 106 48" fill="none" xmlns="http://www.w3.org/2000/svg">
<g filter="url(#filter0_d)">
<path d="M48 18.2087C48 15.392 50.243 13.1007 53 13.1007C55.7573 13.1007 58 15.3923 58 18.209C58 21.0257 55.7573 23.317 53 23.317C50.243 23.317 48 21.0254 48 18.2087Z" fill="url(#paint0_linear)"/>
<path d="M55.7546 30.985L53.3048 28.8443C53.1294 28.691 52.8712 28.691 52.6955 28.8446L50.2452 30.9853V23.5777C51.0694 24.0207 52.0059 24.2748 53 24.2748C53.9942 24.2748 54.9306 24.021 55.7546 23.5777V30.985Z" fill="url(#paint1_linear)"/>
</g>
<defs>
<filter id="filter0_d" x="0" y="0.100708" width="106" height="113.885" filterUnits="userSpaceOnUse" color-interpolation-filters="sRGB">
<feFlood flood-opacity="0" result="BackgroundImageFix"/>
<feColorMatrix in="SourceAlpha" type="matrix" values="0 0 0 0 0 0 0 0 0 0 0 0 0 0 0 0 0 0 127 0"/>
<feOffset dy="35"/>
<feGaussianBlur stdDeviation="24"/>
<feColorMatrix type="matrix" values="0 0 0 0 0 0 0 0 0 0 0 0 0 0 0 0 0 0 0.2 0"/>
<feBlend mode="multiply" in2="BackgroundImageFix" result="effect1_dropShadow"/>
<feBlend mode="normal" in="SourceGraphic" in2="effect1_dropShadow" result="shape"/>
</filter>
<linearGradient id="paint0_linear" x1="57.1892" y1="14.152" x2="44.9861" y2="18.5472" gradientUnits="userSpaceOnUse">
<stop stop-color="#C57BFF"/>
<stop offset="1" stop-color="#9206FF"/>
</linearGradient>
<linearGradient id="paint1_linear" x1="57.1892" y1="14.152" x2="44.9861" y2="18.5472" gradientUnits="userSpaceOnUse">
<stop stop-color="#C57BFF"/>
<stop offset="1" stop-color="#9206FF"/>
</linearGradient>
</defs>
</svg>
