<svg width="106" height="48" viewBox="0 0 106 48" fill="none" xmlns="http://www.w3.org/2000/svg">
<g filter="url(#filter0_d)">
<path d="M48 18.2088C48 15.3921 50.243 13.1008 53 13.1008C55.7573 13.1008 58 15.3924 58 18.2091C58 21.0258 55.7573 23.3171 53 23.3171C50.243 23.3171 48 21.0255 48 18.2088Z" fill="url(#paint0_linear)"/>
<path d="M55.7546 30.9852L53.3048 28.8444C53.1294 28.6911 52.8712 28.6911 52.6955 28.8447L50.2452 30.9854V23.5778C51.0694 24.0208 52.0059 24.2749 53 24.2749C53.9942 24.2749 54.9306 24.0211 55.7546 23.5778V30.9852Z" fill="url(#paint1_linear)"/>
</g>
<defs>
<filter id="filter0_d" x="0" y="0.10083" width="106" height="113.885" filterUnits="userSpaceOnUse" color-interpolation-filters="sRGB">
<feFlood flood-opacity="0" result="BackgroundImageFix"/>
<feColorMatrix in="SourceAlpha" type="matrix" values="0 0 0 0 0 0 0 0 0 0 0 0 0 0 0 0 0 0 127 0"/>
<feOffset dy="35"/>
<feGaussianBlur stdDeviation="24"/>
<feColorMatrix type="matrix" values="0 0 0 0 0 0 0 0 0 0 0 0 0 0 0 0 0 0 0.2 0"/>
<feBlend mode="multiply" in2="BackgroundImageFix" result="effect1_dropShadow"/>
<feBlend mode="normal" in="SourceGraphic" in2="effect1_dropShadow" result="shape"/>
</filter>
<linearGradient id="paint0_linear" x1="57.1892" y1="14.152" x2="44.9861" y2="18.5472" gradientUnits="userSpaceOnUse">
<stop stop-color="#C57BFF"/>
<stop offset="1" stop-color="#9206FF"/>
</linearGradient>
<linearGradient id="paint1_linear" x1="57.1892" y1="14.152" x2="44.9861" y2="18.5472" gradientUnits="userSpaceOnUse">
<stop stop-color="#C57BFF"/>
<stop offset="1" stop-color="#9206FF"/>
</linearGradient>
</defs>
</svg>
