<svg width="94" height="80" viewBox="0 0 94 80" fill="none" xmlns="http://www.w3.org/2000/svg">
<mask id="mask0" mask-type="alpha" maskUnits="userSpaceOnUse" x="-3" y="-2" width="97" height="83">
<path d="M-2.66504 -1.58984H94V80.3959H-2.66504V-1.58984Z" fill="white"/>
</mask>
<g mask="url(#mask0)">
<path opacity="0.2" fill-rule="evenodd" clip-rule="evenodd" d="M88.9723 50.7355C88.2702 24.0225 53.4146 -6.28337 27.4313 2.56929C10.917 8.19752 -0.253807 29.0446 3.8543 45.5092C11.1601 74.7838 65.6 85.4729 82.5782 69.7772C89.3109 63.5557 89.0628 54.1939 88.9723 50.7355Z" fill="white"/>
</g>
<path fill-rule="evenodd" clip-rule="evenodd" d="M78.1701 23.3681H50.7701C46.8341 19.6681 41.5441 17.3921 35.7151 17.3921C23.5601 17.3921 13.7051 27.2461 13.7051 39.4031C13.7051 51.5591 23.5591 61.4131 35.7151 61.4131C41.3175 61.4201 46.71 59.2817 50.7851 55.4371H78.1701C78.9544 55.4347 79.7059 55.1221 80.2605 54.5675C80.8151 54.0129 81.1277 53.2614 81.1301 52.4771V26.3281C81.1277 25.5438 80.8151 24.7923 80.2605 24.2377C79.7059 23.6831 78.9544 23.3705 78.1701 23.3681Z" fill="white"/>
<path fill-rule="evenodd" clip-rule="evenodd" d="M50.7705 23.3682C50.9745 23.6992 57.4125 28.7822 57.4125 39.4032C57.4125 49.7892 50.7865 55.4372 50.7865 55.4372H78.1705C78.1705 55.4372 81.1305 55.2502 81.1305 52.4772V26.3282C81.1305 26.3282 81.1405 23.3682 78.1705 23.3682H50.7705Z" fill="white"/>
<path fill-rule="evenodd" clip-rule="evenodd" d="M68.1313 45.2342C67.9228 45.2363 67.7164 45.1915 67.5274 45.1033C67.3384 45.015 67.1716 44.8855 67.0393 44.7242L62.6423 39.3762C62.5254 39.2345 62.4377 39.0711 62.384 38.8955C62.3304 38.7198 62.312 38.5352 62.3298 38.3524C62.3477 38.1696 62.4014 37.9921 62.488 37.83C62.5746 37.668 62.6923 37.5247 62.8343 37.4082C63.1209 37.1735 63.4888 37.0619 63.8575 37.0979C64.2262 37.1339 64.5656 37.3145 64.8013 37.6002L67.9003 41.3682L71.8743 34.2862C72.0559 33.9628 72.3585 33.7247 72.7155 33.6244C73.0726 33.5241 73.4549 33.5697 73.7783 33.7512C74.1018 33.9328 74.3398 34.2354 74.4402 34.5924C74.5405 34.9495 74.4949 35.3318 74.3133 35.6552L69.3373 44.5202C69.2171 44.735 69.0422 44.9142 68.8304 45.0395C68.6186 45.1649 68.3775 45.2321 68.1313 45.2342Z" fill="#4338AD"/>
<mask id="mask1" mask-type="alpha" maskUnits="userSpaceOnUse" x="20" y="23" width="32" height="32">
<path d="M20.1758 39.403C20.1758 47.99 27.1378 54.953 35.7268 54.953C44.3138 54.953 51.2758 47.99 51.2758 39.403C51.2758 30.815 44.3138 23.853 35.7268 23.853C27.1378 23.853 20.1758 30.815 20.1758 39.403Z" fill="white"/>
</mask>
<g mask="url(#mask1)">
<path fill-rule="evenodd" clip-rule="evenodd" d="M37.7608 56.3879L37.6858 56.3969C28.2058 57.6119 19.5358 50.9109 18.3218 41.4309L18.2798 41.1089C17.0658 31.6289 23.7658 22.9589 33.2468 21.7429L33.3218 21.7329C42.8018 20.5189 51.4718 27.2199 52.6858 36.6999L52.7278 37.0219C53.9418 46.5019 47.2408 55.1719 37.7608 56.3869" fill="#7377E9"/>
</g>
<path fill-rule="evenodd" clip-rule="evenodd" d="M51.2756 39.4649C51.2756 48.0269 44.2966 54.9649 35.6886 54.9649C27.0806 54.9649 20.1016 48.0269 20.1016 39.4649C20.1016 30.9029 27.0816 23.9629 35.6886 23.9629C44.2966 23.9629 51.2756 30.9029 51.2756 39.4649Z" fill="#4338AD"/>
<mask id="mask2" mask-type="alpha" maskUnits="userSpaceOnUse" x="20" y="23" width="32" height="33">
<path d="M20.0029 39.3793C20.0029 48.0283 27.0149 55.0403 35.6649 55.0403C44.3139 55.0403 51.3249 48.0283 51.3249 39.3793C51.3249 30.7293 44.3139 23.7173 35.6649 23.7173C27.0149 23.7173 20.0029 30.7293 20.0029 39.3793Z" fill="white"/>
</mask>
<g mask="url(#mask2)">
<path fill-rule="evenodd" clip-rule="evenodd" d="M42.1339 34.2874C42.1339 40.6034 38.8919 45.0414 35.6599 44.9234C32.5289 44.9234 29.0469 40.2144 29.0469 34.2874C29.0469 30.6924 31.8309 27.3374 35.6599 27.3374C39.4899 27.3374 42.1339 30.6924 42.1339 34.2874Z" fill="#DFE0F8"/>
</g>
<mask id="mask3" mask-type="alpha" maskUnits="userSpaceOnUse" x="20" y="23" width="32" height="33">
<path d="M20.0029 39.3793C20.0029 48.0283 27.0149 55.0403 35.6649 55.0403C44.3139 55.0403 51.3249 48.0283 51.3249 39.3793C51.3249 30.7293 44.3139 23.7173 35.6649 23.7173C27.0149 23.7173 20.0029 30.7293 20.0029 39.3793Z" fill="#C664A7"/>
</mask>
<g mask="url(#mask3)">
<path fill-rule="evenodd" clip-rule="evenodd" d="M50.3946 58.4352C50.3946 66.5702 43.7996 77.1632 35.6646 77.1632C27.5286 77.1632 20.9336 66.5702 20.9336 58.4352C20.9336 50.3002 27.5286 47.0562 35.6636 47.0562C43.7996 47.0562 50.3936 50.3002 50.3936 58.4362" fill="#DFE0F8"/>
</g>
</svg>
