<svg width="395" height="332" viewBox="0 0 395 332" fill="none" xmlns="http://www.w3.org/2000/svg">
<g opacity="0.16">
<mask id="path-1-inside-1" fill="white">
<path fill-rule="evenodd" clip-rule="evenodd" d="M85.1826 244.136L122.753 265.827L122.59 309.493L84.8556 331.467L47.2852 309.776L47.4487 266.11L85.1826 244.136ZM87.6358 315.931L111.35 302.122L111.308 271.85L85.0248 256.676L58.7892 271.776L58.6854 299.217L85.0697 286.949L87.6358 315.931Z"/>
</mask>
<path d="M85.1826 244.136L196.183 51.8781L84.7022 -12.4852L-26.5365 52.2951L85.1826 244.136ZM122.753 265.827L344.752 266.658L345.234 137.933L233.753 73.5694L122.753 265.827ZM122.59 309.493L234.309 501.334L344.112 437.389L344.588 310.324L122.59 309.493ZM84.8556 331.467L-26.1444 523.725L85.3361 588.088L196.575 523.308L84.8556 331.467ZM47.2852 309.776L-174.713 308.945L-175.195 437.67L-63.7148 502.034L47.2852 309.776ZM47.4487 266.11L-64.2705 74.2696L-174.074 138.214L-174.55 265.279L47.4487 266.11ZM87.6358 315.931L-133.499 335.511L-102.675 683.64L199.346 507.777L87.6358 315.931ZM111.35 302.122L223.06 493.969L333.53 429.643L333.35 301.81L111.35 302.122ZM111.308 271.85L333.307 271.537L333.127 143.574L222.308 79.5925L111.308 271.85ZM85.0248 256.676L196.025 64.418L85.1953 0.430583L-25.7193 64.2705L85.0248 256.676ZM58.7892 271.776L-51.9549 79.3711L-162.726 143.128L-163.209 270.937L58.7892 271.776ZM58.6854 299.217L-163.313 298.377L-164.634 647.87L152.281 500.522L58.6854 299.217ZM85.0697 286.949L306.205 267.37L278.306 -47.7168L-8.52587 85.644L85.0697 286.949ZM-25.8174 436.393L11.7531 458.085L233.753 73.5694L196.183 51.8781L-25.8174 436.393ZM-99.2453 264.996L-99.4088 308.662L344.588 310.324L344.752 266.658L-99.2453 264.996ZM10.8705 117.652L-26.8635 139.627L196.575 523.308L234.309 501.334L10.8705 117.652ZM195.856 139.21L158.285 117.518L-63.7148 502.034L-26.1444 523.725L195.856 139.21ZM269.284 310.607L269.447 266.942L-174.55 265.279L-174.713 308.945L269.284 310.607ZM159.168 457.951L196.902 435.976L-26.5365 52.2951L-64.2705 74.2696L159.168 457.951ZM199.346 507.777L223.06 493.969L-0.359442 110.276L-24.0739 124.085L199.346 507.777ZM333.35 301.81L333.307 271.537L-110.692 272.163L-110.649 302.435L333.35 301.81ZM222.308 79.5925L196.025 64.418L-25.9752 448.933L0.307645 464.108L222.308 79.5925ZM-25.7193 64.2705L-51.9549 79.3711L169.533 464.181L195.769 449.081L-25.7193 64.2705ZM-163.209 270.937L-163.313 298.377L280.684 300.056L280.788 272.616L-163.209 270.937ZM152.281 500.522L178.665 488.255L-8.52587 85.644L-34.9102 97.9112L152.281 500.522ZM-136.065 306.529L-133.499 335.511L308.771 296.351L306.205 267.37L-136.065 306.529Z" fill="#FA9055" mask="url(#path-1-inside-1)"/>
</g>
<g opacity="0.14">
<path d="M361.251 204.307C365.682 205.478 375.374 208.039 376.916 201.849H376.918C378.492 195.523 369.098 193.415 364.514 192.386C364.002 192.271 363.55 192.17 363.18 192.078L360.197 204.033C360.5 204.109 360.854 204.202 361.251 204.307Z" fill="white"/>
<path d="M365.435 186.838C369.132 187.825 377.191 189.974 378.595 184.351C380.03 178.598 372.194 176.865 368.367 176.018C367.937 175.923 367.557 175.839 367.247 175.761L364.543 186.605C364.799 186.669 365.099 186.749 365.435 186.838Z" fill="white"/>
<path fill-rule="evenodd" clip-rule="evenodd" d="M355.521 239.519C382.045 246.13 408.908 229.993 415.52 203.475H415.518C422.13 176.955 405.992 150.093 379.469 143.481C352.953 136.87 326.091 153.01 319.482 179.531C312.869 206.047 329.009 232.907 355.521 239.519ZM378.438 171.959C385.296 174.321 390.312 177.862 389.328 184.449H389.327C388.613 189.27 385.94 191.604 382.391 192.426C387.264 194.964 389.743 198.854 387.38 205.599C384.452 213.974 377.485 214.681 368.223 212.928L365.975 221.935L360.544 220.582L362.762 211.695C361.354 211.345 359.916 210.974 358.435 210.572L356.207 219.501L350.782 218.147L353.03 209.121C352.532 208.993 352.03 208.863 351.525 208.731C350.746 208.527 349.957 208.322 349.159 208.122L342.089 206.36L344.785 200.141C344.785 200.141 348.788 201.206 348.734 201.127C350.271 201.507 350.954 200.505 351.223 199.837L354.776 185.598L355.349 185.74C355.132 185.654 354.936 185.598 354.784 185.559L357.318 175.395C357.386 174.241 356.987 172.785 354.787 172.236C354.872 172.179 350.842 171.255 350.842 171.255L352.287 165.455L359.778 167.325L359.772 167.353C360.898 167.633 362.058 167.899 363.24 168.168L365.466 159.249L370.895 160.602L368.714 169.346C370.171 169.679 371.638 170.015 373.064 170.37L375.23 161.683L380.663 163.037L378.438 171.959Z" fill="white"/>
</g>
<g opacity="0.16">
<mask id="path-4-inside-2" fill="white">
<path d="M0 43.2949L25.9949 58.7112L51.9796 43.2949L25.9949 0L0 43.2949Z"/>
<path d="M0 48.2388L25.9949 85L52 48.2388L25.9949 63.6551L0 48.2388Z"/>
</mask>
<path d="M0 43.2949L-190.329 -70.9811L-305.227 120.384L-113.241 234.241L0 43.2949ZM25.9949 58.7112L-87.2461 249.658L26.0172 316.828L139.269 249.638L25.9949 58.7112ZM51.9796 43.2949L165.254 234.222L357.153 120.37L242.328 -70.9481L51.9796 43.2949ZM25.9949 0L216.343 -114.243L26.0324 -431.334L-164.334 -114.276L25.9949 0ZM0 48.2388L113.241 -142.707L-181.26 176.413L0 48.2388ZM25.9949 85L-155.265 213.174L25.9594 469.457L207.232 213.208L25.9949 85ZM52 48.2388L233.237 176.447L-61.2081 -142.727L52 48.2388ZM25.9949 63.6551L-87.246 254.601L25.9727 321.746L139.203 254.621L25.9949 63.6551ZM-113.241 234.241L-87.2461 249.658L139.236 -132.235L113.241 -147.651L-113.241 234.241ZM139.269 249.638L165.254 234.222L-61.2944 -147.632L-87.279 -132.215L139.269 249.638ZM242.328 -70.9481L216.343 -114.243L-164.354 114.243L-138.369 157.538L242.328 -70.9481ZM-164.334 -114.276L-190.329 -70.9811L190.329 157.571L216.324 114.276L-164.334 -114.276ZM-181.26 176.413L-155.265 213.174L207.255 -43.1744L181.26 -79.9356L-181.26 176.413ZM207.232 213.208L233.237 176.447L-129.237 -79.9691L-155.242 -43.2079L207.232 213.208ZM-61.2081 -142.727L-87.2132 -127.311L139.203 254.621L165.208 239.205L-61.2081 -142.727ZM139.236 -127.291L113.241 -142.707L-113.241 239.185L-87.246 254.601L139.236 -127.291Z" fill="#FFE76A" mask="url(#path-4-inside-2)"/>
</g>
</svg>
