<svg width="20" height="20" viewBox="0 0 20 20" fill="none" xmlns="http://www.w3.org/2000/svg">
<g clip-path="url(#clip0)">
<g filter="url(#filter0_d)">
<path d="M17.9692 6.77188C17.926 6.63992 17.8465 6.52268 17.7397 6.43344C17.633 6.3442 17.5032 6.28654 17.3652 6.26701L12.735 5.63593L10.6696 1.41882C10.6086 1.2933 10.5132 1.18743 10.3946 1.11336C10.2759 1.03929 10.1386 1 9.99857 1C9.8585 1 9.72127 1.03929 9.60259 1.11336C9.4839 1.18743 9.38858 1.2933 9.32752 1.41882L7.26217 5.63593L2.63192 6.30413C2.49536 6.32511 2.36734 6.38347 2.26215 6.47268C2.15696 6.56189 2.07874 6.67845 2.0362 6.80936C1.99367 6.94026 1.98851 7.08036 2.02128 7.21402C2.05406 7.34768 2.12349 7.46964 2.22183 7.5663L5.56963 10.8182L4.77928 15.3694C4.75266 15.5086 4.7666 15.6525 4.81945 15.784C4.8723 15.9156 4.96185 16.0294 5.07753 16.1119C5.18554 16.1863 5.31138 16.231 5.44231 16.2414C5.57324 16.2518 5.70462 16.2276 5.82314 16.1713L9.25296 14.3745V17.5151H7.01612C6.81837 17.5151 6.62872 17.5933 6.48889 17.7326C6.34906 17.8718 6.27051 18.0606 6.27051 18.2576C6.27051 18.4545 6.34906 18.6433 6.48889 18.7825C6.62872 18.9218 6.81837 19 7.01612 19H12.981C13.1788 19 13.3684 18.9218 13.5083 18.7825C13.6481 18.6433 13.7266 18.4545 13.7266 18.2576C13.7266 18.0606 13.6481 17.8718 13.5083 17.7326C13.3684 17.5933 13.1788 17.5151 12.981 17.5151H10.7442V14.3745L14.1367 16.1564C14.2462 16.2087 14.3658 16.2366 14.4872 16.2381C14.6426 16.2371 14.7938 16.1878 14.9196 16.097C15.0353 16.0145 15.1248 15.9008 15.1777 15.7692C15.2305 15.6376 15.2445 15.4938 15.2179 15.3546L14.4275 10.7662L17.7753 7.51432C17.8725 7.41987 17.9418 7.3008 17.976 7.16996C18.0102 7.03912 18.0078 6.90148 17.9692 6.77188Z" fill="url(#paint0_linear)"/>
</g>
</g>
<defs>
<filter id="filter0_d" x="-46" y="-12" width="112" height="114" filterUnits="userSpaceOnUse" color-interpolation-filters="sRGB">
<feFlood flood-opacity="0" result="BackgroundImageFix"/>
<feColorMatrix in="SourceAlpha" type="matrix" values="0 0 0 0 0 0 0 0 0 0 0 0 0 0 0 0 0 0 127 0"/>
<feOffset dy="35"/>
<feGaussianBlur stdDeviation="24"/>
<feColorMatrix type="matrix" values="0 0 0 0 0 0 0 0 0 0 0 0 0 0 0 0 0 0 0.2 0"/>
<feBlend mode="multiply" in2="BackgroundImageFix" result="effect1_dropShadow"/>
<feBlend mode="normal" in="SourceGraphic" in2="effect1_dropShadow" result="shape"/>
</filter>
<linearGradient id="paint0_linear" x1="16.7027" y1="2.22988" x2="-1.04863" y2="10.9732" gradientUnits="userSpaceOnUse">
<stop stop-color="#5FBFEB"/>
<stop offset="1" stop-color="#3B75CF"/>
</linearGradient>
<clipPath id="clip0">
<rect width="20" height="20" fill="white"/>
</clipPath>
</defs>
</svg>
