<svg width="112" height="48" viewBox="0 0 112 48" fill="none" xmlns="http://www.w3.org/2000/svg">
<g filter="url(#filter0_d)">
<path d="M63.9692 18.8726C63.926 18.7406 63.8465 18.6234 63.7397 18.5341C63.633 18.4449 63.5032 18.3872 63.3652 18.3677L58.735 17.7366L56.6696 13.5195C56.6086 13.394 56.5132 13.2881 56.3946 13.2141C56.2759 13.14 56.1386 13.1007 55.9986 13.1007C55.8585 13.1007 55.7213 13.14 55.6026 13.2141C55.4839 13.2881 55.3886 13.394 55.3275 13.5195L53.2622 17.7366L48.6319 18.4048C48.4954 18.4258 48.3673 18.4842 48.2622 18.5734C48.157 18.6626 48.0787 18.7792 48.0362 18.9101C47.9937 19.041 47.9885 19.1811 48.0213 19.3147C48.0541 19.4484 48.1235 19.5704 48.2218 19.667L51.5696 22.9189L50.7793 27.4701C50.7527 27.6093 50.7666 27.7532 50.8194 27.8848C50.8723 28.0163 50.9618 28.1301 51.0775 28.2126C51.1855 28.287 51.3114 28.3317 51.4423 28.3421C51.5732 28.3525 51.7046 28.3284 51.8231 28.272L55.253 26.4753V29.6158H53.0161C52.8184 29.6158 52.6287 29.694 52.4889 29.8333C52.3491 29.9725 52.2705 30.1613 52.2705 30.3583C52.2705 30.5552 52.3491 30.744 52.4889 30.8833C52.6287 31.0225 52.8184 31.1007 53.0161 31.1007H58.981C59.1788 31.1007 59.3684 31.0225 59.5083 30.8833C59.6481 30.744 59.7266 30.5552 59.7266 30.3583C59.7266 30.1613 59.6481 29.9725 59.5083 29.8333C59.3684 29.694 59.1788 29.6158 58.981 29.6158H56.7442V26.4753L60.1367 28.2571C60.2462 28.3094 60.3658 28.3373 60.4872 28.3388C60.6426 28.3378 60.7938 28.2885 60.9196 28.1977C61.0353 28.1152 61.1248 28.0015 61.1777 27.8699C61.2305 27.7383 61.2445 27.5945 61.2179 27.4553L60.4275 22.867L63.7753 19.615C63.8725 19.5206 63.9418 19.4015 63.976 19.2707C64.0102 19.1398 64.0078 19.0022 63.9692 18.8726Z" fill="url(#paint0_linear)"/>
</g>
<defs>
<filter id="filter0_d" x="0" y="0.100708" width="112" height="114" filterUnits="userSpaceOnUse" color-interpolation-filters="sRGB">
<feFlood flood-opacity="0" result="BackgroundImageFix"/>
<feColorMatrix in="SourceAlpha" type="matrix" values="0 0 0 0 0 0 0 0 0 0 0 0 0 0 0 0 0 0 127 0"/>
<feOffset dy="35"/>
<feGaussianBlur stdDeviation="24"/>
<feColorMatrix type="matrix" values="0 0 0 0 0 0 0 0 0 0 0 0 0 0 0 0 0 0 0.2 0"/>
<feBlend mode="multiply" in2="BackgroundImageFix" result="effect1_dropShadow"/>
<feBlend mode="normal" in="SourceGraphic" in2="effect1_dropShadow" result="shape"/>
</filter>
<linearGradient id="paint0_linear" x1="62.7027" y1="14.3307" x2="44.9514" y2="23.074" gradientUnits="userSpaceOnUse">
<stop stop-color="#5FBFEB"/>
<stop offset="1" stop-color="#3B75CF"/>
</linearGradient>
</defs>
</svg>
