<svg width="91" height="77" viewBox="0 0 91 77" fill="none" xmlns="http://www.w3.org/2000/svg">
<mask id="mask0" mask-type="alpha" maskUnits="userSpaceOnUse" x="0" y="0" width="91" height="77">
<path d="M0 0H90.1355V76.7468H0V0Z" fill="white"/>
</mask>
<g mask="url(#mask0)">
<path opacity="0.2" fill-rule="evenodd" clip-rule="evenodd" d="M0.029084 50.2235C0.764884 23.2474 37.2962 -7.35552 64.5273 1.58431C81.8368 7.26665 93.5459 28.319 89.239 44.9458C81.5807 74.5085 24.525 85.3029 6.72798 69.4526C-0.323216 63.17 -0.065816 53.7159 0.030384 50.2235" fill="white"/>
</g>
<path fill-rule="evenodd" clip-rule="evenodd" d="M77.8776 30.7494H8.80078V16.5918C8.80078 16.1171 8.89393 15.6471 9.07492 15.2086C9.2559 14.77 9.52117 14.3716 9.85557 14.036C10.19 13.7004 10.587 13.4343 11.0238 13.2527C11.4607 13.0712 11.929 12.9779 12.4018 12.978H74.2779C76.2669 12.978 77.8776 14.5963 77.8776 16.5918V30.7494Z" fill="#4338AD"/>
<path fill-rule="evenodd" clip-rule="evenodd" d="M74.6968 65.9363H12.419C11.5124 65.9363 10.643 65.5748 10.0019 64.9314C9.36071 64.288 9.00034 63.4153 9 62.5052V24H78.1171V62.5052C78.1171 63.4155 77.7569 64.2886 77.1157 64.9323C76.4745 65.576 75.6049 65.9376 74.6981 65.9376" fill="white"/>
<path d="M44 54.6L38 57L44 43.8L50 57L44 54.6ZM39.2 33H48.8V36.6H56V39H48.8V42.6H39.2V39H32V36.6H39.2V33ZM41.6 35.4V40.2H46.4V35.4H41.6Z" fill="#4338AD"/>
<path fill-rule="evenodd" clip-rule="evenodd" d="M63.9955 18.5726C63.9955 19.1986 63.7478 19.799 63.3069 20.2416C62.866 20.6842 62.2679 20.9329 61.6444 20.9329C61.0209 20.9329 60.4229 20.6842 59.982 20.2416C59.5411 19.799 59.2934 19.1986 59.2934 18.5726C59.2934 17.9467 59.5411 17.3463 59.982 16.9037C60.4229 16.4611 61.0209 16.2124 61.6444 16.2124C62.2679 16.2124 62.866 16.4611 63.3069 16.9037C63.7478 17.3463 63.9955 17.9467 63.9955 18.5726ZM54.2858 18.5726C54.2858 19.1985 54.0381 19.7986 53.5973 20.2411C53.1566 20.6836 52.5587 20.9322 51.9354 20.9322C51.312 20.9322 50.7142 20.6836 50.2734 20.2411C49.8326 19.7986 49.585 19.1985 49.585 18.5726C49.585 17.9468 49.8326 17.3467 50.2734 16.9042C50.7142 16.4617 51.312 16.2131 51.9354 16.2131C52.5587 16.2131 53.1566 16.4617 53.5973 16.9042C54.0381 17.3467 54.2858 17.9468 54.2858 18.5726ZM73.7052 18.5726C73.7052 19.1986 73.4575 19.799 73.0166 20.2416C72.5756 20.6842 71.9776 20.9329 71.3541 20.9329C70.7306 20.9329 70.1326 20.6842 69.6917 20.2416C69.2508 19.799 69.0031 19.1986 69.0031 18.5726C69.0031 17.9467 69.2508 17.3463 69.6917 16.9037C70.1326 16.4611 70.7306 16.2124 71.3541 16.2124C71.9776 16.2124 72.5756 16.4611 73.0166 16.9037C73.4575 17.3463 73.7052 17.9467 73.7052 18.5726Z" fill="white"/>
</svg>
